<?xml version="1.0" encoding="UTF-8" standalone="no"?><!DOCTYPE svg PUBLIC "-//W3C//DTD SVG 1.1//EN" "http://www.w3.org/Graphics/SVG/1.1/DTD/svg11.dtd"><svg width="100%" height="100%" viewBox="0 0 2560 1440" version="1.1" xmlns="http://www.w3.org/2000/svg" xmlns:xlink="http://www.w3.org/1999/xlink" xml:space="preserve" xmlns:serif="http://www.serif.com/" style="fill-rule:evenodd;clip-rule:evenodd;stroke-linejoin:round;stroke-miterlimit:2;"><rect x="0" y="0" width="2560" height="1440" style="fill:url(#_Radial1);"/><rect x="1154.99" y="766.281" width="254.191" height="73.202"/><g transform="matrix(0.540418,0,0,0.540418,912.313,602.345)"><text x="506.193px" y="398.463px" style="font-family:'Consolas-Bold', 'Consolas', monospace;font-weight:700;font-size:92.521px;fill:#fefffe;">pxi</text><text x="658.799px" y="398.463px" style="font-family:'Consolas', monospace;font-size:92.521px;fill:#fefffe;">|lab</text></g><text x="1096.32px" y="880.336px" style="font-family:'Ubuntu-Regular', 'Ubuntu', sans-serif;font-size:33.333px;fill:#010001;">exploring and explaining</text><path d="M1282.09,641.429l-45.456,45.456l45.456,45.456l45.456,-45.456l-45.456,-45.456Zm-45.458,-45.458l-45.457,45.456l45.457,45.456l45.456,-45.456l-45.456,-45.456Zm90.914,-0l-45.456,45.456l45.456,45.456l45.456,-45.456l-45.456,-45.456Zm-62.659,17.799l17.679,17.679l17.679,-17.679l-17.679,-17.679l-17.679,17.679Zm20.405,-29.918l14.953,14.953l14.953,-14.953l-14.953,-14.953l-14.953,14.953Zm-16.773,-29.001l14.047,14.048l14.048,-14.048l-14.048,-14.047l-14.047,14.047Z" style="fill:url(#_Linear2);"/><g id="g124152"><path d="M1264.92,613.807l17.688,17.688l17.688,-17.688l-17.688,-17.687l-17.688,17.687Z" style="fill:url(#_Linear3);"/><path d="M1285.34,583.874l14.961,14.961l14.961,-14.961l-14.961,-14.96l-14.961,14.96Z" style="fill:url(#_Linear4);"/><path d="M1268.56,554.859l14.055,14.055l14.055,-14.055l-14.055,-14.055l-14.055,14.055Z" style="fill:url(#_Linear5);"/><path d="M1236.65,595.999l-45.48,45.48l45.48,45.479l45.479,-45.479l-45.479,-45.48Z" style="fill:url(#_Linear6);"/><path d="M1327.52,595.999l-45.48,45.48l45.48,45.479l45.479,-45.479l-45.479,-45.48Z" style="fill:url(#_Linear7);"/><path d="M1282.04,641.479l-45.479,45.479l45.479,45.479l45.48,-45.479l-45.48,-45.479Z" style="fill:url(#_Linear8);"/></g><defs><radialGradient id="_Radial1" cx="0" cy="0" r="1" gradientUnits="userSpaceOnUse" gradientTransform="matrix(-2996.25,-3218.44,1131.05,-8525.89,2560,1440)"><stop offset="0" style="stop-color:#9692af;stop-opacity:1"/><stop offset="0.2" style="stop-color:#5eb9dc;stop-opacity:1"/><stop offset="0.45" style="stop-color:#55d6d0;stop-opacity:1"/><stop offset="1" style="stop-color:#5ecaf0;stop-opacity:1"/></radialGradient><linearGradient id="_Linear2" x1="0" y1="0" x2="1" y2="0" gradientUnits="userSpaceOnUse" gradientTransform="matrix(1.92798,210.476,-210.476,1.92798,1280.11,521.866)"><stop offset="0" style="stop-color:#5a5a5a;stop-opacity:1"/><stop offset="0.55" style="stop-color:#1b1a1b;stop-opacity:1"/><stop offset="1" style="stop-color:#010001;stop-opacity:1"/></linearGradient><linearGradient id="_Linear3" x1="0" y1="0" x2="1" y2="0" gradientUnits="userSpaceOnUse" gradientTransform="matrix(3.55271e-15,-61.9249,61.9254,7.10543e-15,1282.61,645.799)"><stop offset="0" style="stop-color:#000;stop-opacity:1"/><stop offset="0.47" style="stop-color:#454545;stop-opacity:0.73"/><stop offset="1" style="stop-color:#fefffe;stop-opacity:0"/></linearGradient><linearGradient id="_Linear4" x1="0" y1="0" x2="1" y2="0" gradientUnits="userSpaceOnUse" gradientTransform="matrix(3.55271e-15,-57.0263,57.0267,3.55271e-15,1300.3,610.316)"><stop offset="0" style="stop-color:#000;stop-opacity:1"/><stop offset="0.44" style="stop-color:#4c4d4c;stop-opacity:0.7"/><stop offset="1" style="stop-color:#fefffe;stop-opacity:0"/></linearGradient><linearGradient id="_Linear5" x1="0" y1="0" x2="1" y2="0" gradientUnits="userSpaceOnUse" gradientTransform="matrix(1.66978e-13,-38.4462,49.7904,2.0961e-13,1282.61,572.531)"><stop offset="0" style="stop-color:#282929;stop-opacity:0.9"/><stop offset="0.49" style="stop-color:#5f6060;stop-opacity:0.67"/><stop offset="1" style="stop-color:#fefffe;stop-opacity:0"/></linearGradient><linearGradient id="_Linear6" x1="0" y1="0" x2="1" y2="0" gradientUnits="userSpaceOnUse" gradientTransform="matrix(1.42109e-14,-147.482,147.483,1.42109e-14,1236.56,705.096)"><stop offset="0" style="stop-color:#000;stop-opacity:1"/><stop offset="0.42" style="stop-color:#505050;stop-opacity:0.69"/><stop offset="1" style="stop-color:#fefffe;stop-opacity:0"/></linearGradient><linearGradient id="_Linear7" x1="0" y1="0" x2="1" y2="0" gradientUnits="userSpaceOnUse" gradientTransform="matrix(2.84217e-14,-151.841,151.842,2.84217e-14,1327.52,710.898)"><stop offset="0" style="stop-color:#000;stop-opacity:1"/><stop offset="0.45" style="stop-color:#4b4b4b;stop-opacity:0.71"/><stop offset="1" style="stop-color:#fefffe;stop-opacity:0"/></linearGradient><linearGradient id="_Linear8" x1="0" y1="0" x2="1" y2="0" gradientUnits="userSpaceOnUse" gradientTransform="matrix(-0.0445646,-152.53,152.531,-0.0445649,1282.09,752.868)"><stop offset="0" style="stop-color:#000;stop-opacity:1"/><stop offset="0.49" style="stop-color:#424342;stop-opacity:0.74"/><stop offset="1" style="stop-color:#fefffe;stop-opacity:0"/></linearGradient></defs></svg>